<svg xmlns="http://www.w3.org/2000/svg" viewBox="0 0 1000 500" role="img" aria-label="Minimal world map">
  <defs>
    <linearGradient id="ocean" x1="0" y1="0" x2="0" y2="1">
      <stop offset="0%" stop-color="#f8fafd"/>
      <stop offset="100%" stop-color="#f1f5fb"/>
    </linearGradient>
  </defs>
  <rect width="1000" height="500" fill="url(#ocean)"/>
  <g stroke="#e1e7f0" stroke-width="1">
    <line x1="0" y1="100" x2="1000" y2="100"/>
    <line x1="0" y1="200" x2="1000" y2="200"/>
    <line x1="0" y1="300" x2="1000" y2="300"/>
    <line x1="0" y1="400" x2="1000" y2="400"/>
    <line x1="200" y1="0" x2="200" y2="500"/>
    <line x1="400" y1="0" x2="400" y2="500"/>
    <line x1="600" y1="0" x2="600" y2="500"/>
    <line x1="800" y1="0" x2="800" y2="500"/>
  </g>
  <g fill="#dde5f0" stroke="#c9d2e0" stroke-width="1.7">
    <path d="M77 156L115 122L170 107L224 112L263 135L301 157L330 196L324 223L289 237L254 228L226 243L183 244L149 260L116 252L89 230L72 198Z"/>
    <path d="M344 88L381 74L423 80L445 102L430 124L387 126L353 112Z"/>
    <path d="M280 259L307 272L326 301L334 341L321 386L304 430L279 459L258 447L245 403L251 356L265 319Z"/>
    <path d="M468 143L500 128L536 131L561 145L553 165L530 172L503 170L482 178L464 163Z"/>
    <path d="M509 182L538 191L559 216L569 250L567 297L552 344L528 372L505 345L493 305L495 261L500 224Z"/>
    <path d="M560 146L602 125L655 116L713 121L772 137L831 163L873 194L889 225L877 247L846 251L813 241L778 253L733 249L696 236L666 223L639 232L618 219L601 197L575 187Z"/>
    <path d="M650 245L670 262L674 287L661 307L645 292L640 268Z"/>
    <path d="M781 317L816 304L857 311L888 337L897 369L882 393L848 403L812 393L786 369L773 343Z"/>
    <path d="M832 205L843 215L840 231L827 235L820 223Z"/>
    <path d="M903 410L919 404L930 416L924 433L909 438L900 425Z"/>
  </g>
</svg>
