<svg width="24" height="24" viewBox="0 0 24 24" fill="none" xmlns="http://www.w3.org/2000/svg">
<path d="M8.92125 17.3025C8.92125 17.3775 8.835 17.4375 8.72625 17.4375C8.6025 17.4487 8.51625 17.3888 8.51625 17.3025C8.51625 17.2275 8.6025 17.1675 8.71125 17.1675C8.82375 17.1562 8.92125 17.2162 8.92125 17.3025ZM7.755 17.1337C7.72875 17.2087 7.80375 17.295 7.91625 17.3175C8.01375 17.355 8.12625 17.3175 8.14875 17.2425C8.17125 17.1675 8.1 17.0813 7.9875 17.0475C7.89 17.0212 7.78125 17.0588 7.755 17.1337ZM9.4125 17.07C9.30375 17.0963 9.22875 17.1675 9.24 17.2537C9.25125 17.3287 9.34875 17.3775 9.46125 17.3513C9.57 17.325 9.645 17.2537 9.63375 17.1788C9.6225 17.1075 9.52125 17.0588 9.4125 17.07ZM11.88 2.7C6.67875 2.7 2.7 6.64875 2.7 11.85C2.7 16.0087 5.3175 19.5675 9.05625 20.82C9.53625 20.9062 9.705 20.61 9.705 20.3662C9.705 20.1337 9.69375 18.8512 9.69375 18.0638C9.69375 18.0638 7.06875 18.6262 6.5175 16.9462C6.5175 16.9462 6.09 15.855 5.475 15.5737C5.475 15.5737 4.61625 14.985 5.535 14.9963C5.535 14.9963 6.46875 15.0713 6.9825 15.9638C7.80375 17.4113 9.18 16.995 9.71625 16.7475C9.8025 16.1475 10.0462 15.7312 10.3162 15.4837C8.22 15.2513 6.105 14.9475 6.105 11.34C6.105 10.3088 6.39 9.79125 6.99 9.13125C6.8925 8.8875 6.57375 7.8825 7.0875 6.585C7.87125 6.34125 9.675 7.5975 9.675 7.5975C10.425 7.3875 11.2312 7.27875 12.03 7.27875C12.8287 7.27875 13.635 7.3875 14.385 7.5975C14.385 7.5975 16.1887 6.3375 16.9725 6.585C17.4862 7.88625 17.1675 8.8875 17.07 9.13125C17.67 9.795 18.0375 10.3125 18.0375 11.34C18.0375 14.9587 15.8287 15.2475 13.7325 15.4837C14.0775 15.78 14.37 16.3425 14.37 17.2237C14.37 18.4875 14.3587 20.0513 14.3587 20.3588C14.3587 20.6025 14.5312 20.8988 15.0075 20.8125C18.7575 19.5675 21.3 16.0087 21.3 11.85C21.3 6.64875 17.0812 2.7 11.88 2.7ZM6.345 15.6337C6.29625 15.6712 6.3075 15.7575 6.37125 15.8288C6.43125 15.8888 6.5175 15.915 6.56625 15.8663C6.615 15.8288 6.60375 15.7425 6.54 15.6712C6.48 15.6112 6.39375 15.585 6.345 15.6337ZM5.94 15.33C5.91375 15.3787 5.95125 15.4388 6.02625 15.4763C6.08625 15.5138 6.16125 15.5025 6.1875 15.45C6.21375 15.4012 6.17625 15.3413 6.10125 15.3038C6.02625 15.2812 5.96625 15.2925 5.94 15.33ZM7.155 16.665C7.095 16.7137 7.1175 16.8263 7.20375 16.8975C7.29 16.9838 7.39875 16.995 7.4475 16.935C7.49625 16.8863 7.47375 16.7737 7.39875 16.7025C7.31625 16.6163 7.20375 16.605 7.155 16.665ZM6.7275 16.1138C6.6675 16.1513 6.6675 16.2487 6.7275 16.335C6.7875 16.4213 6.88875 16.4587 6.9375 16.4212C6.9975 16.3725 6.9975 16.275 6.9375 16.1888C6.885 16.1025 6.7875 16.065 6.7275 16.1138Z" fill="black"/>
</svg>
