<svg width="24" height="24" viewBox="0 0 24 24" fill="none" xmlns="http://www.w3.org/2000/svg">
<path d="M17.0587 13.5938C17.0587 13.5938 17.0587 13.5975 17.0625 13.5975C17.4075 14.325 17.6025 15.1388 17.6025 15.9975C17.5987 19.0913 15.0937 21.6 12 21.6C8.90624 21.6 6.40124 19.0913 6.40124 16.0013C6.40124 15.1425 6.59624 14.3288 6.94124 13.6013C7.00499 13.4663 7.07624 13.3313 7.15124 13.2C7.31624 12.915 7.50374 12.6488 7.71374 12.4013C8.74124 11.1788 10.2825 10.4025 12.0037 10.4025C13.2637 10.4025 14.4262 10.8187 15.3637 11.5237C15.705 11.7825 16.0162 12.075 16.2937 12.405C16.5037 12.6525 16.6912 12.9225 16.8562 13.2038C16.9312 13.3313 16.9987 13.4663 17.0625 13.5975L17.0587 13.5938ZM18.0487 12.8888C16.92 10.6988 14.6362 9.19875 12 9.19875C9.36374 9.19875 7.07999 10.6988 5.95124 12.8888L2.39999 10.0013L12 2.4L21.6 10.0013L18.0487 12.8925V12.8888Z" fill="#747474"/>
</svg>
