<svg width="24" height="24" viewBox="0 0 24 24" fill="none" xmlns="http://www.w3.org/2000/svg">
<path d="M7.36126 19.2H3.87751V7.98375H7.36126V19.2ZM5.61751 6.45375C4.50376 6.45375 3.60001 5.53125 3.60001 4.4175C3.60001 3.88125 3.81376 3.37125 4.19251 2.9925C4.57126 2.61375 5.08501 2.4 5.61751 2.4C6.15001 2.4 6.66376 2.61375 7.04251 2.9925C7.42126 3.37125 7.63501 3.885 7.63501 4.4175C7.63501 5.53125 6.73126 6.45375 5.61751 6.45375ZM20.3963 19.2H16.92V13.74C16.92 12.4388 16.8938 10.77 15.1088 10.77C13.2975 10.77 13.02 12.1838 13.02 13.6463V19.2H9.54001V7.98375H12.8813V9.51375H12.93C13.395 8.6325 14.5313 7.7025 16.2263 7.7025C19.7513 7.7025 20.4 10.0238 20.4 13.0388V19.2H20.3963Z" fill="#747474"/>
</svg>
